<svg width="143" height="44" viewBox="0 0 143 44" fill="none" xmlns="http://www.w3.org/2000/svg">
<ellipse rx="4.977" ry="4.977" transform="matrix(0.66711 -0.744865 0.66711 0.744865 19.8096 15.3981)" fill="#FFC107"/>
<path d="M17.2158 11.2604C14.868 6.54193 15.455 5.3623 16.0419 5.3623" stroke="#FFC107" stroke-linecap="round"/>
<path d="M22.5602 11.2321C25.3104 6.79299 24.8297 5.55487 24.2456 5.4907" stroke="#FFC107" stroke-linecap="round"/>
<path d="M25.3474 30.3773C25.3474 32.9953 23.8564 34.938 22.2296 36.9594C22.1765 37.0254 22.1232 37.0915 22.0698 37.1578C21.0534 38.4186 19.9943 39.7324 19.3914 41.2465C18.7885 39.7324 17.7294 38.4186 16.7131 37.1578C16.6597 37.0915 16.6064 37.0254 16.5533 36.9594C14.9264 34.938 13.4355 32.9953 13.4355 30.3773C13.4355 27.6398 14.1386 25.185 15.2491 23.4303C16.3635 21.6692 17.8406 20.6749 19.3914 20.6749C20.9422 20.6749 22.4193 21.6692 23.5338 23.4303C24.6442 25.185 25.3474 27.6398 25.3474 30.3773Z" stroke="#FFC107"/>
<mask id="mask0" mask-type="alpha" maskUnits="userSpaceOnUse" x="12" y="20" width="14" height="24">
<path d="M25.8477 30.3773C25.8477 36.0118 19.3914 38.6665 19.3914 43.7676C19.3914 38.6665 12.9352 36.0118 12.9352 30.3773C12.9352 24.7428 15.8257 20.1752 19.3914 20.1752C22.9571 20.1752 25.8477 24.7428 25.8477 30.3773Z" fill="white"/>
</mask>
<g mask="url(#mask0)">
<rect x="14.3301" y="24.9052" width="2.6247" height="12.8962" transform="rotate(-90 14.3301 24.9052)" fill="#FFC107"/>
<rect x="14.0557" y="30.0199" width="2.6247" height="12.8962" transform="rotate(-90 14.0557 30.0199)" fill="#FFC107"/>
<rect x="13.5196" y="40.2394" width="2.6247" height="12.8962" transform="rotate(-90 13.5196 40.2394)" fill="#FFC107"/>
<rect x="12.9352" y="43.7677" width="2.6247" height="12.8962" transform="rotate(-90 12.9352 43.7677)" fill="#FFC107"/>
<rect x="14.0268" y="34.9324" width="2.6247" height="12.8962" transform="rotate(-90 14.0268 34.9324)" fill="#FFC107"/>
</g>
<path d="M10.6566 13.7394C11.9363 14.652 13.5336 16.5432 14.6125 18.5508C15.1499 19.5507 15.5427 20.5505 15.7101 21.4445C15.878 22.3412 15.81 23.0752 15.4993 23.6127C15.1885 24.1502 14.616 24.5244 13.812 24.728C13.0104 24.931 12.0284 24.9504 10.9862 24.8239C8.89351 24.5698 6.68054 23.7438 5.40076 22.8312C2.88706 21.0386 2.07246 17.5551 3.51222 15.0645C4.95198 12.5739 8.14286 11.9468 10.6566 13.7394Z" stroke="#FFC107"/>
<path d="M28.3107 13.7394C27.031 14.652 25.4337 16.5432 24.3548 18.5508C23.8174 19.5507 23.4246 20.5505 23.2572 21.4445C23.0893 22.3412 23.1573 23.0752 23.468 23.6127C23.7787 24.1502 24.3513 24.5244 25.1553 24.728C25.9569 24.931 26.9389 24.9504 27.9811 24.8239C30.0738 24.5698 32.2868 23.7438 33.5665 22.8312C36.0802 21.0386 36.8948 17.5551 35.4551 15.0645C34.0153 12.574 30.8244 11.9468 28.3107 13.7394Z" stroke="#FFC107"/>
<line x1="38.8653" y1="6.89856" x2="38.8653" y2="0.753699" stroke="#FFC107" stroke-width="0.5"/>
<line x1="37.4963" y1="8.3005" x2="31.0198" y2="8.3005" stroke="#FFC107" stroke-width="0.5"/>
<line x1="46.4014" y1="8.3005" x2="39.925" y2="8.3005" stroke="#FFC107" stroke-width="0.5"/>
<line x1="38.8653" y1="16.1158" x2="38.8653" y2="9.97099" stroke="#FFC107" stroke-width="0.5"/>
<line x1="9.61996" y1="36.7013" x2="9.61996" y2="33.0144" stroke="#FFC107" stroke-width="0.5"/>
<line x1="8.75696" y1="37.4887" x2="4.87108" y2="37.4887" stroke="#FFC107" stroke-width="0.5"/>
<line y1="-0.25" x2="3.88342" y2="-0.25" transform="matrix(-1.00063 -6.94154e-07 -6.95033e-07 -0.999367 14.1001 37.2389)" stroke="#FFC107" stroke-width="0.5"/>
<line y1="-0.25" x2="3.68925" y2="-0.25" transform="matrix(-1.09742e-06 -0.999367 1.00063 1.18351e-06 9.87012 42.2316)" stroke="#FFC107" stroke-width="0.5"/>
<path d="M60.214 20.9309H65.2523V40.7367H60.9468L55.0536 32.1941C54.9314 32.0186 54.7584 31.7651 54.5345 31.4335C54.3309 31.1019 54.107 30.7606 53.8627 30.4096C53.6388 30.039 53.4149 29.6879 53.1909 29.3564C52.9874 29.0053 52.8143 28.7225 52.6718 28.508C52.6922 28.8005 52.7126 29.1613 52.7329 29.5904C52.7736 30 52.8042 30.4193 52.8245 30.8484C52.8652 31.2775 52.8958 31.6968 52.9161 32.1064C52.9365 32.516 52.9467 32.8573 52.9467 33.1303L53.0383 40.7367H48V20.9309H52.1222L58.0765 29.4149C58.2597 29.6879 58.4633 30 58.6872 30.3511C58.9112 30.6826 59.1351 31.0239 59.359 31.375C59.6033 31.7261 59.8272 32.0674 60.0308 32.3989C60.2343 32.711 60.4074 32.984 60.5499 33.2181C60.5295 32.906 60.5092 32.5452 60.4888 32.1356C60.4684 31.7261 60.4379 31.3067 60.3972 30.8777C60.3768 30.4291 60.3565 30 60.3361 29.5904C60.3158 29.1809 60.3056 28.82 60.3056 28.508L60.214 20.9309Z" fill="#FFC107"/>
<path d="M67.6223 33.8032C67.6223 32.4965 67.8157 31.3457 68.2025 30.3511C68.6096 29.3369 69.1592 28.4982 69.8513 27.8351C70.5638 27.1525 71.3883 26.6356 72.3247 26.2846C73.2611 25.9335 74.2789 25.758 75.3782 25.758C76.3349 25.758 77.1492 25.875 77.821 26.109C78.4927 26.3236 79.0424 26.6356 79.4699 27.0452C79.8973 27.4353 80.2129 27.9034 80.4164 28.4495C80.62 28.9761 80.7218 29.5514 80.7218 30.1755C80.7218 30.8777 80.5386 31.5408 80.1722 32.1649C79.8057 32.789 79.2765 33.3449 78.5843 33.8324C77.9126 34.3005 77.0881 34.6906 76.111 35.0027C75.1543 35.3147 74.0652 35.5195 72.8438 35.617C72.9863 36.2021 73.2407 36.68 73.6071 37.0505C73.9939 37.4016 74.5741 37.5771 75.3476 37.5771C75.7955 37.5771 76.2739 37.5284 76.7828 37.4309C77.2917 37.3333 77.7599 37.2261 78.1874 37.109C78.6963 36.9725 79.195 36.8165 79.6836 36.641L80.5997 39.6835C80.05 39.9371 79.4495 40.1613 78.7981 40.3564C78.2485 40.5124 77.6072 40.6587 76.8744 40.7952C76.1619 40.9317 75.3985 41 74.5843 41C73.3425 41 72.2738 40.8245 71.3781 40.4734C70.5028 40.1223 69.7801 39.6348 69.2101 39.0106C68.6605 38.3865 68.2533 37.6356 67.9887 36.758C67.7444 35.8608 67.6223 34.8759 67.6223 33.8032ZM74.7675 29.0638C74.3807 29.0638 74.0448 29.1711 73.7598 29.3856C73.4952 29.6002 73.2814 29.883 73.1186 30.234C72.9557 30.5851 72.8336 30.9752 72.7522 31.4043C72.6707 31.8333 72.6198 32.2527 72.5995 32.6622C73.2102 32.6427 73.7191 32.555 74.1262 32.3989C74.5537 32.2429 74.8998 32.0479 75.1644 31.8138C75.4291 31.5798 75.6225 31.3262 75.7446 31.0532C75.8667 30.7801 75.9278 30.5266 75.9278 30.2926C75.9278 29.922 75.8158 29.6294 75.5919 29.4149C75.3884 29.1809 75.1135 29.0638 74.7675 29.0638Z" fill="#FFC107"/>
<path d="M103.005 26.0505C103.066 26.3626 103.137 26.8697 103.218 27.5718C103.3 28.2739 103.341 29.0053 103.341 29.766C103.341 31.7943 103.188 33.5204 102.883 34.9441C102.577 36.3484 102.099 37.4991 101.447 38.3963C100.796 39.2739 99.9614 39.9176 98.9435 40.3271C97.9461 40.7172 96.7552 40.9122 95.3709 40.9122C93.7424 40.9122 92.521 40.2686 91.7067 38.9814C91.1571 39.742 90.5159 40.2589 89.783 40.5319C89.0706 40.7855 88.2054 40.9122 87.1876 40.9122C86.3326 40.9122 85.6099 40.7952 85.0196 40.5612C84.4292 40.3076 83.9509 39.9566 83.5844 39.508C83.218 39.0399 82.9534 38.4938 82.7905 37.8697C82.6277 37.2261 82.5463 36.5044 82.5463 35.7048V26.0505H87.3708V35.5878C87.3708 36.1534 87.4726 36.641 87.6761 37.0505C87.8797 37.4406 88.185 37.6356 88.5922 37.6356C89.264 37.6356 89.7525 37.1871 90.0579 36.2899C90.3836 35.3732 90.5464 33.891 90.5464 31.8431V26.0505H95.3709V26.6649C95.3709 27.0745 95.3608 27.5913 95.3404 28.2154C95.3404 28.8395 95.3404 29.5319 95.3404 30.2926C95.3404 31.0532 95.3302 31.7846 95.3099 32.4867C95.3099 33.1888 95.3099 33.8227 95.3099 34.3883C95.3099 34.9539 95.3099 35.3537 95.3099 35.5878C95.3099 36.1534 95.4117 36.641 95.6152 37.0505C95.8188 37.4406 96.1241 37.6356 96.5313 37.6356C96.9791 37.6356 97.3354 37.4309 97.6 37.0213C97.8646 36.5922 98.058 36.0266 98.1802 35.3245C98.3227 34.6223 98.4143 33.8129 98.455 32.8963C98.4957 31.9601 98.516 30.9947 98.516 30C98.516 29.0053 98.4652 28.1959 98.3634 27.5718C98.2819 26.9477 98.2209 26.4406 98.1802 26.0505H103.005Z" fill="#FFC107"/>
<path d="M106.104 20.3165L110.928 19.5266V27.3085C111.722 26.3333 112.78 25.8457 114.104 25.8457C115.06 25.8457 115.895 26.0213 116.608 26.3723C117.34 26.7234 117.941 27.2207 118.409 27.8644C118.898 28.4885 119.254 29.2491 119.478 30.1463C119.722 31.0434 119.844 32.0479 119.844 33.1596C119.844 34.2713 119.651 35.305 119.264 36.2606C118.898 37.1968 118.379 38.016 117.707 38.7181C117.035 39.4007 116.231 39.9371 115.295 40.3271C114.358 40.7172 113.32 40.9122 112.18 40.9122C111.549 40.9122 110.887 40.8732 110.195 40.7952C109.523 40.7172 108.892 40.6294 108.302 40.5319C107.732 40.4344 107.243 40.3466 106.836 40.2686C106.429 40.1711 106.185 40.1028 106.104 40.0638V20.3165ZM113.157 29.2394C112.831 29.2394 112.526 29.3759 112.241 29.6489C111.976 29.922 111.742 30.2828 111.539 30.7314C111.356 31.18 111.203 31.7066 111.081 32.3112C110.979 32.9158 110.928 33.5399 110.928 34.1835V37.3138C111.05 37.3528 111.233 37.4016 111.478 37.4601C111.742 37.4991 111.976 37.5186 112.18 37.5186C112.669 37.5186 113.076 37.4211 113.401 37.2261C113.727 37.0115 113.982 36.7287 114.165 36.3777C114.368 36.0071 114.511 35.578 114.592 35.0904C114.674 34.5833 114.714 34.0372 114.714 33.4521C114.714 32.906 114.704 32.3794 114.684 31.8723C114.663 31.3652 114.592 30.9167 114.47 30.5266C114.368 30.1365 114.216 29.8245 114.012 29.5904C113.808 29.3564 113.524 29.2394 113.157 29.2394Z" fill="#FFC107"/>
<path d="M125.987 40.8537C124.827 40.8537 123.891 40.5709 123.178 40.0053C122.466 39.4202 122.109 38.6011 122.109 37.5479V26.0505H126.934V36.2314C126.934 36.68 127.005 36.9823 127.148 37.1383C127.29 37.2943 127.504 37.3723 127.789 37.3723C127.952 37.3723 128.115 37.3626 128.277 37.3431C128.44 37.3041 128.542 37.2748 128.583 37.2553L129.01 40.1516C128.99 40.1711 128.898 40.2199 128.735 40.2979C128.573 40.3564 128.359 40.4344 128.094 40.5319C127.83 40.6099 127.514 40.6782 127.148 40.7367C126.781 40.8147 126.394 40.8537 125.987 40.8537ZM124.583 19C125.438 19 126.089 19.2438 126.537 19.7314C126.985 20.219 127.209 20.8333 127.209 21.5745C127.209 22.3351 126.975 22.969 126.506 23.4761C126.059 23.9832 125.377 24.2367 124.461 24.2367C123.606 24.2367 122.944 23.9929 122.476 23.5053C122.028 22.9982 121.804 22.4034 121.804 21.7207C121.804 20.9406 122.038 20.297 122.506 19.7899C122.974 19.2633 123.667 19 124.583 19Z" fill="#FFC107"/>
<path d="M129.9 33.8032C129.9 32.4965 130.094 31.3457 130.481 30.3511C130.888 29.3369 131.437 28.4982 132.13 27.8351C132.842 27.1525 133.666 26.6356 134.603 26.2846C135.539 25.9335 136.557 25.758 137.656 25.758C138.613 25.758 139.427 25.875 140.099 26.109C140.771 26.3236 141.321 26.6356 141.748 27.0452C142.176 27.4353 142.491 27.9034 142.695 28.4495C142.898 28.9761 143 29.5514 143 30.1755C143 30.8777 142.817 31.5408 142.45 32.1649C142.084 32.789 141.555 33.3449 140.863 33.8324C140.191 34.3005 139.366 34.6906 138.389 35.0027C137.432 35.3147 136.343 35.5195 135.122 35.617C135.264 36.2021 135.519 36.68 135.885 37.0505C136.272 37.4016 136.852 37.5771 137.626 37.5771C138.074 37.5771 138.552 37.5284 139.061 37.4309C139.57 37.3333 140.038 37.2261 140.466 37.109C140.975 36.9725 141.473 36.8165 141.962 36.641L142.878 39.6835C142.328 39.9371 141.728 40.1613 141.076 40.3564C140.527 40.5124 139.885 40.6587 139.153 40.7952C138.44 40.9317 137.677 41 136.862 41C135.621 41 134.552 40.8245 133.656 40.4734C132.781 40.1223 132.058 39.6348 131.488 39.0106C130.939 38.3865 130.532 37.6356 130.267 36.758C130.023 35.8608 129.9 34.8759 129.9 33.8032ZM137.046 29.0638C136.659 29.0638 136.323 29.1711 136.038 29.3856C135.773 29.6002 135.56 29.883 135.397 30.234C135.234 30.5851 135.112 30.9752 135.03 31.4043C134.949 31.8333 134.898 32.2527 134.878 32.6622C135.488 32.6427 135.997 32.555 136.404 32.3989C136.832 32.2429 137.178 32.0479 137.443 31.8138C137.707 31.5798 137.901 31.3262 138.023 31.0532C138.145 30.7801 138.206 30.5266 138.206 30.2926C138.206 29.922 138.094 29.6294 137.87 29.4149C137.667 29.1809 137.392 29.0638 137.046 29.0638Z" fill="#FFC107"/>
</svg>
