<svg width="48" height="13" viewBox="0 0 48 13" fill="none" xmlns="http://www.w3.org/2000/svg">
<path d="M6.92999 1.84498H9.40499V12H7.28999L4.39499 7.61998C4.33499 7.52998 4.24999 7.39998 4.13999 7.22998C4.03999 7.05998 3.92999 6.88498 3.80999 6.70498C3.69999 6.51498 3.58999 6.33498 3.47999 6.16498C3.37999 5.98498 3.29499 5.83998 3.22499 5.72998C3.23499 5.87998 3.24499 6.06498 3.25499 6.28498C3.27499 6.49498 3.28999 6.70998 3.29999 6.92998C3.31999 7.14998 3.33499 7.36498 3.34499 7.57498C3.35499 7.78498 3.35999 7.95998 3.35999 8.09998L3.40499 12H0.929993V1.84498H2.95499L5.87999 6.19498C5.96999 6.33498 6.06999 6.49498 6.17999 6.67498C6.28999 6.84498 6.39999 7.01998 6.50999 7.19998C6.62999 7.37998 6.73999 7.55498 6.83999 7.72498C6.93999 7.88498 7.02499 8.02498 7.09499 8.14498C7.08499 7.98498 7.07499 7.79998 7.06499 7.58998C7.05499 7.37998 7.03999 7.16498 7.01999 6.94498C7.00999 6.71498 6.99999 6.49498 6.98999 6.28498C6.97999 6.07498 6.97499 5.88998 6.97499 5.72998L6.92999 1.84498Z" fill="black"/>
<path d="M10.5693 8.44498C10.5693 7.77498 10.6642 7.18498 10.8542 6.67498C11.0542 6.15498 11.3243 5.72498 11.6643 5.38498C12.0143 5.03498 12.4193 4.76998 12.8793 4.58998C13.3393 4.40998 13.8393 4.31998 14.3793 4.31998C14.8493 4.31998 15.2493 4.37998 15.5793 4.49998C15.9093 4.60998 16.1792 4.76998 16.3892 4.97998C16.5992 5.17998 16.7543 5.41998 16.8542 5.69998C16.9543 5.96998 17.0043 6.26498 17.0043 6.58498C17.0043 6.94498 16.9143 7.28498 16.7343 7.60498C16.5543 7.92498 16.2943 8.20998 15.9543 8.45998C15.6243 8.69998 15.2193 8.89998 14.7393 9.05998C14.2693 9.21998 13.7343 9.32498 13.1343 9.37498C13.2043 9.67498 13.3293 9.91998 13.5093 10.11C13.6993 10.29 13.9843 10.38 14.3643 10.38C14.5843 10.38 14.8193 10.355 15.0693 10.305C15.3193 10.255 15.5493 10.2 15.7593 10.14C16.0093 10.07 16.2543 9.98998 16.4943 9.89998L16.9443 11.46C16.6743 11.59 16.3792 11.705 16.0592 11.805C15.7893 11.885 15.4743 11.96 15.1143 12.03C14.7643 12.1 14.3893 12.135 13.9893 12.135C13.3793 12.135 12.8543 12.045 12.4143 11.865C11.9843 11.685 11.6293 11.435 11.3493 11.115C11.0793 10.795 10.8793 10.41 10.7493 9.95998C10.6293 9.49998 10.5693 8.99498 10.5693 8.44498ZM14.0793 6.01498C13.8893 6.01498 13.7243 6.06998 13.5843 6.17998C13.4543 6.28998 13.3493 6.43498 13.2693 6.61498C13.1893 6.79498 13.1293 6.99498 13.0893 7.21498C13.0493 7.43498 13.0243 7.64998 13.0143 7.85998C13.3143 7.84998 13.5643 7.80498 13.7643 7.72498C13.9743 7.64498 14.1443 7.54498 14.2743 7.42498C14.4043 7.30498 14.4993 7.17498 14.5593 7.03498C14.6193 6.89498 14.6493 6.76498 14.6493 6.64498C14.6493 6.45498 14.5943 6.30498 14.4843 6.19498C14.3843 6.07498 14.2493 6.01498 14.0793 6.01498Z" fill="black"/>
<path d="M27.9505 4.46998C27.9805 4.62998 28.0155 4.88998 28.0555 5.24998C28.0955 5.60998 28.1155 5.98498 28.1155 6.37498C28.1155 7.41498 28.0405 8.29998 27.8905 9.02998C27.7405 9.74998 27.5055 10.34 27.1855 10.8C26.8655 11.25 26.4555 11.58 25.9555 11.79C25.4655 11.99 24.8805 12.09 24.2005 12.09C23.4005 12.09 22.8005 11.76 22.4005 11.1C22.1305 11.49 21.8155 11.755 21.4555 11.895C21.1055 12.025 20.6805 12.09 20.1805 12.09C19.7605 12.09 19.4055 12.03 19.1155 11.91C18.8255 11.78 18.5905 11.6 18.4105 11.37C18.2305 11.13 18.1005 10.85 18.0205 10.53C17.9405 10.2 17.9005 9.82998 17.9005 9.41998V4.46998H20.2705V9.35998C20.2705 9.64998 20.3205 9.89998 20.4205 10.11C20.5205 10.31 20.6705 10.41 20.8705 10.41C21.2005 10.41 21.4405 10.18 21.5905 9.71998C21.7505 9.24998 21.8305 8.48998 21.8305 7.43998V4.46998H24.2005V4.78498C24.2005 4.99498 24.1955 5.25998 24.1855 5.57998C24.1855 5.89998 24.1855 6.25498 24.1855 6.64498C24.1855 7.03498 24.1805 7.40998 24.1705 7.76998C24.1705 8.12998 24.1705 8.45498 24.1705 8.74498C24.1705 9.03498 24.1705 9.23998 24.1705 9.35998C24.1705 9.64998 24.2205 9.89998 24.3205 10.11C24.4205 10.31 24.5705 10.41 24.7705 10.41C24.9905 10.41 25.1655 10.305 25.2955 10.095C25.4255 9.87498 25.5205 9.58498 25.5805 9.22498C25.6505 8.86498 25.6955 8.44998 25.7155 7.97998C25.7355 7.49998 25.7455 7.00498 25.7455 6.49498C25.7455 5.98498 25.7205 5.56998 25.6705 5.24998C25.6305 4.92998 25.6005 4.66998 25.5805 4.46998H27.9505Z" fill="black"/>
<path d="M29.4728 1.52998L31.8428 1.12498V5.11498C32.2328 4.61498 32.7528 4.36498 33.4028 4.36498C33.8728 4.36498 34.2828 4.45498 34.6328 4.63498C34.9928 4.81498 35.2878 5.06998 35.5178 5.39998C35.7578 5.71998 35.9328 6.10998 36.0428 6.56998C36.1628 7.02998 36.2228 7.54498 36.2228 8.11498C36.2228 8.68498 36.1278 9.21498 35.9378 9.70498C35.7578 10.185 35.5028 10.605 35.1728 10.965C34.8428 11.315 34.4478 11.59 33.9878 11.79C33.5278 11.99 33.0178 12.09 32.4578 12.09C32.1478 12.09 31.8228 12.07 31.4828 12.03C31.1528 11.99 30.8428 11.945 30.5528 11.895C30.2728 11.845 30.0328 11.8 29.8328 11.76C29.6328 11.71 29.5128 11.675 29.4728 11.655V1.52998ZM32.9378 6.10498C32.7778 6.10498 32.6278 6.17498 32.4878 6.31498C32.3578 6.45498 32.2428 6.63998 32.1428 6.86998C32.0528 7.09998 31.9778 7.36998 31.9178 7.67998C31.8678 7.98998 31.8428 8.30998 31.8428 8.63998V10.245C31.9028 10.265 31.9928 10.29 32.1128 10.32C32.2428 10.34 32.3578 10.35 32.4578 10.35C32.6978 10.35 32.8978 10.3 33.0578 10.2C33.2178 10.09 33.3428 9.94498 33.4328 9.76498C33.5328 9.57498 33.6028 9.35498 33.6428 9.10498C33.6828 8.84498 33.7028 8.56498 33.7028 8.26498C33.7028 7.98498 33.6978 7.71498 33.6878 7.45498C33.6778 7.19498 33.6428 6.96498 33.5828 6.76498C33.5328 6.56498 33.4578 6.40498 33.3578 6.28498C33.2578 6.16498 33.1178 6.10498 32.9378 6.10498Z" fill="black"/>
<path d="M39.2405 12.06C38.6705 12.06 38.2105 11.915 37.8605 11.625C37.5105 11.325 37.3355 10.905 37.3355 10.365V4.46998H39.7055V9.68998C39.7055 9.91998 39.7405 10.075 39.8105 10.155C39.8805 10.235 39.9855 10.275 40.1255 10.275C40.2055 10.275 40.2855 10.27 40.3655 10.26C40.4455 10.24 40.4955 10.225 40.5155 10.215L40.7255 11.7C40.7155 11.71 40.6705 11.735 40.5905 11.775C40.5105 11.805 40.4055 11.845 40.2755 11.895C40.1455 11.935 39.9905 11.97 39.8105 12C39.6305 12.04 39.4405 12.06 39.2405 12.06ZM38.5505 0.85498C38.9705 0.85498 39.2905 0.97998 39.5105 1.22998C39.7305 1.47998 39.8405 1.79498 39.8405 2.17498C39.8405 2.56498 39.7255 2.88998 39.4955 3.14998C39.2755 3.40998 38.9405 3.53998 38.4905 3.53998C38.0705 3.53998 37.7455 3.41498 37.5155 3.16498C37.2955 2.90498 37.1855 2.59998 37.1855 2.24998C37.1855 1.84998 37.3005 1.51998 37.5305 1.25998C37.7605 0.989981 38.1005 0.85498 38.5505 0.85498Z" fill="black"/>
<path d="M41.1628 8.44498C41.1628 7.77498 41.2578 7.18498 41.4478 6.67498C41.6478 6.15498 41.9178 5.72498 42.2578 5.38498C42.6078 5.03498 43.0128 4.76998 43.4728 4.58998C43.9328 4.40998 44.4328 4.31998 44.9728 4.31998C45.4428 4.31998 45.8428 4.37998 46.1728 4.49998C46.5028 4.60998 46.7728 4.76998 46.9828 4.97998C47.1928 5.17998 47.3478 5.41998 47.4478 5.69998C47.5478 5.96998 47.5978 6.26498 47.5978 6.58498C47.5978 6.94498 47.5078 7.28498 47.3278 7.60498C47.1478 7.92498 46.8878 8.20998 46.5478 8.45998C46.2178 8.69998 45.8128 8.89998 45.3328 9.05998C44.8628 9.21998 44.3278 9.32498 43.7278 9.37498C43.7978 9.67498 43.9228 9.91998 44.1028 10.11C44.2928 10.29 44.5778 10.38 44.9578 10.38C45.1778 10.38 45.4128 10.355 45.6628 10.305C45.9128 10.255 46.1428 10.2 46.3528 10.14C46.6028 10.07 46.8478 9.98998 47.0878 9.89998L47.5378 11.46C47.2678 11.59 46.9728 11.705 46.6528 11.805C46.3828 11.885 46.0678 11.96 45.7078 12.03C45.3578 12.1 44.9828 12.135 44.5828 12.135C43.9728 12.135 43.4478 12.045 43.0078 11.865C42.5778 11.685 42.2228 11.435 41.9428 11.115C41.6728 10.795 41.4728 10.41 41.3428 9.95998C41.2228 9.49998 41.1628 8.99498 41.1628 8.44498ZM44.6728 6.01498C44.4828 6.01498 44.3178 6.06998 44.1778 6.17998C44.0478 6.28998 43.9428 6.43498 43.8628 6.61498C43.7828 6.79498 43.7228 6.99498 43.6828 7.21498C43.6428 7.43498 43.6178 7.64998 43.6078 7.85998C43.9078 7.84998 44.1578 7.80498 44.3578 7.72498C44.5678 7.64498 44.7378 7.54498 44.8678 7.42498C44.9978 7.30498 45.0928 7.17498 45.1528 7.03498C45.2128 6.89498 45.2428 6.76498 45.2428 6.64498C45.2428 6.45498 45.1878 6.30498 45.0778 6.19498C44.9778 6.07498 44.8428 6.01498 44.6728 6.01498Z" fill="black"/>
</svg>
