<svg width="55" height="55" viewBox="0 0 55 55" fill="none" xmlns="http://www.w3.org/2000/svg">
<circle r="3.23773" transform="matrix(0.666688 -0.745337 0.666688 0.745337 25.2312 23.0425)" fill="black"/>
<path d="M23.5449 20.349C22.0185 17.2775 22.4001 16.5096 22.7817 16.5096" stroke="black" stroke-linecap="round"/>
<path d="M27.0194 20.3305C28.8074 17.4409 28.4949 16.6349 28.1152 16.5931" stroke="black" stroke-linecap="round"/>
<path d="M28.6567 32.7932C28.6567 34.4277 27.7304 35.6469 26.6683 36.9684C26.6301 37.0159 26.5916 37.0637 26.553 37.1116C25.9808 37.8219 25.3721 38.5776 24.9593 39.4353C24.5466 38.5776 23.9379 37.822 23.3657 37.1116C23.3271 37.0637 23.2886 37.0159 23.2504 36.9684C22.1883 35.6469 21.2619 34.4277 21.2619 32.7932C21.2619 31.0391 21.7123 29.4746 22.414 28.3644C23.1197 27.2478 24.0321 26.6521 24.9593 26.6521C25.8865 26.6521 26.799 27.2478 27.5047 28.3644C28.2064 29.4746 28.6567 31.0391 28.6567 32.7932Z" stroke="black"/>
<mask id="mask0" mask-type="alpha" maskUnits="userSpaceOnUse" x="20" y="26" width="10" height="16">
<path d="M29.1567 32.7932C29.1567 36.461 24.9593 38.1891 24.9593 41.5096C24.9593 38.1891 20.7619 36.461 20.7619 32.7932C20.7619 29.1254 22.6412 26.1521 24.9593 26.1521C27.2775 26.1521 29.1567 29.1254 29.1567 32.7932Z" fill="white"/>
</mask>
<g mask="url(#mask0)">
<rect x="21.6688" y="29.2311" width="1.70639" height="8.39481" transform="rotate(-90 21.6688 29.2311)" fill="black"/>
<rect x="21.4904" y="32.5605" width="1.70639" height="8.39481" transform="rotate(-90 21.4904 32.5605)" fill="black"/>
<rect x="21.1419" y="39.2129" width="1.70639" height="8.39481" transform="rotate(-90 21.1419 39.2129)" fill="black"/>
<rect x="20.7619" y="41.5096" width="1.70639" height="8.39481" transform="rotate(-90 20.7619 41.5096)" fill="black"/>
<rect x="21.4716" y="35.7583" width="1.70639" height="8.39481" transform="rotate(-90 21.4716 35.7583)" fill="black"/>
</g>
<path d="M19.1932 22.1141C19.9973 22.6882 21.0182 23.8946 21.7093 25.1821C22.0527 25.822 22.2987 26.4528 22.4025 27.008C22.5068 27.5657 22.4585 27.9908 22.2867 28.2882C22.115 28.5857 21.7876 28.8115 21.2881 28.9382C20.791 29.0643 20.1728 29.0781 19.5067 28.9971C18.1664 28.8342 16.7551 28.3039 15.951 27.7297C14.3885 26.6141 13.8943 24.4576 14.778 22.9269C15.6618 21.3962 17.6307 20.9985 19.1932 22.1141Z" stroke="black"/>
<path d="M30.8454 22.1141C30.0413 22.6882 29.0204 23.8946 28.3293 25.1821C27.9859 25.822 27.7399 26.4528 27.636 27.008C27.5317 27.5657 27.5801 27.9908 27.7519 28.2882C27.9236 28.5857 28.251 28.8115 28.7505 28.9382C29.2476 29.0643 29.8658 29.0781 30.5319 28.9971C31.8722 28.8341 33.2835 28.3039 34.0876 27.7297C35.65 26.6141 36.1443 24.4576 35.2606 22.9269C34.3768 21.3962 32.4078 20.9985 30.8454 22.1141Z" stroke="black"/>
<line x1="37.5324" y1="17.5096" x2="37.5324" y2="13.5096" stroke="black" stroke-width="0.5"/>
<line x1="36.7298" y1="18.5096" x2="32.5193" y2="18.5096" stroke="black" stroke-width="0.5"/>
<line x1="42.5193" y1="18.5096" x2="38.3087" y2="18.5096" stroke="black" stroke-width="0.5"/>
<line x1="37.5324" y1="23.5096" x2="37.5324" y2="19.5096" stroke="black" stroke-width="0.5"/>
<line x1="18.5193" y1="36.9097" x2="18.5193" y2="34.5097" stroke="black" stroke-width="0.5"/>
<line x1="18.0456" y1="37.5096" x2="15.5192" y2="37.5096" stroke="black" stroke-width="0.5"/>
<line x1="21.5193" y1="37.5096" x2="18.9929" y2="37.5096" stroke="black" stroke-width="0.5"/>
<line x1="18.5193" y1="40.5096" x2="18.5193" y2="38.1096" stroke="black" stroke-width="0.5"/>
</svg>
